<svg width="40" height="43" viewBox="0 0 40 43" fill="none" xmlns="http://www.w3.org/2000/svg">
<g clip-path="url(#clip0_4001_748)">
<path d="M12.7629 42.9285C10.1504 42.9285 7.53789 41.9249 5.54637 39.9218C1.56723 35.9116 1.56723 29.3901 5.54637 25.3798L20.7837 10.0277C22.0212 8.78055 23.6629 8.09604 25.4129 8.09604C27.1629 8.09604 28.8046 8.78049 30.0421 10.0277C32.592 12.5976 32.592 16.7841 30.0421 19.3544L15.0879 34.4168C14.4379 35.0719 13.3796 35.0719 12.7296 34.4168C12.0795 33.7617 12.0795 32.6993 12.7296 32.04L27.6794 16.9733C28.2878 16.3603 28.6211 15.5498 28.6211 14.6848C28.6211 13.8197 28.2878 13.0051 27.6794 12.3962C27.0711 11.7831 26.267 11.4472 25.4086 11.4472C24.5503 11.4472 23.7419 11.7831 23.1378 12.3962L7.90472 27.7526C5.22557 30.4527 5.22557 34.8449 7.90472 37.5453C10.5839 40.2454 14.9421 40.2454 17.6215 37.5453L33.4301 21.6095C35.4176 19.6064 36.5134 16.94 36.5134 14.1054C36.5134 11.271 35.4175 8.60468 33.4301 6.60141C31.4425 4.59837 28.7967 3.49402 25.9842 3.49402C23.1717 3.49402 20.5298 4.59842 18.5383 6.60141L3.01725 22.2475C2.36723 22.9026 1.31309 22.9026 0.658907 22.2475C0.00888005 21.5924 0.00888005 20.53 0.658907 19.8707L16.1837 4.22841C21.588 -1.21808 30.3837 -1.21808 35.788 4.22841C38.4046 6.86549 39.8505 10.3763 39.8505 14.1093C39.8505 17.8422 38.4088 21.3489 35.788 23.9901L19.9794 39.9259C17.9878 41.9248 15.3753 42.9285 12.7629 42.9285Z" fill="white"/>
</g>
<defs>
<clipPath id="clip0_4001_748">
<rect width="40" height="43" fill="white"/>
</clipPath>
</defs>
</svg>
