<svg width="40" height="40" viewBox="0 0 40 40" fill="none" xmlns="http://www.w3.org/2000/svg">
<g clip-path="url(#clip0_4001_757)">
<path d="M38.9493 1.05095C38.2443 0.321809 37.1691 0.0948563 36.2298 0.47619L1.94407 13.6514C0.956358 14.0272 0.301597 14.974 0.297882 16.0324C0.292302 17.1689 1.0475 18.1678 2.14312 18.4729L16.7655 23.3333L21.626 37.9557H21.6278C21.9589 38.9844 22.9076 39.6856 23.9883 39.7024C25.0542 39.7061 26.0103 39.0513 26.3897 38.0562L39.524 3.77048C39.9054 2.83109 39.6784 1.7559 38.9493 1.05095ZM4.12783 16.0324L33.0359 4.9219L17.4797 20.4781L4.12783 16.0324ZM23.9678 35.8724L19.524 22.5186L35.0802 6.96238L23.9678 35.8724Z" fill="white"/>
</g>
<defs>
<clipPath id="clip0_4001_757">
<rect width="40" height="40" fill="white"/>
</clipPath>
</defs>
</svg>
